<?xml version="1.0" encoding="UTF-8"?>
<!DOCTYPE svg PUBLIC "-//W3C//DTD SVG 1.1//EN" "http://www.w3.org/Graphics/SVG/1.1/DTD/svg11.dtd">
<!-- Creator: CorelDRAW 2017 -->
<svg xmlns="http://www.w3.org/2000/svg" xml:space="preserve" width="1.09383in" height="1.40941in" version="1.1" style="shape-rendering:geometricPrecision; text-rendering:geometricPrecision; image-rendering:optimizeQuality; fill-rule:evenodd; clip-rule:evenodd"
viewBox="0 0 174 224"
 xmlns:xlink="http://www.w3.org/1999/xlink">
 <defs>
  <style type="text/css">
   <![CDATA[
    .fil0 {fill:#407BFF}
   ]]>
  </style>
 </defs>
 <g id="Layer_x0020_1">
  <metadata id="CorelCorpID_0Corel-Layer"/>
  <path class="fil0" d="M56 87c1,-2 0,-1 1,-1 0,0 1,-1 1,-1l7 -4c3,-2 6,-3 9,-2l0 99c3,1 9,2 12,2 5,0 8,-1 12,-2l0 -88c0,-11 -2,-15 8,-11l3 1c1,0 1,0 2,1 1,1 1,1 1,2 3,1 9,6 11,8 6,5 4,2 10,10 5,7 0,6 13,6 6,0 14,0 20,0 0,-4 -1,-4 -1,-4 -1,-1 -1,-3 -1,-5l-2 -4c0,-1 0,-1 -1,-2 -4,-5 -3,-5 -7,-9l-5 -6c-2,-2 -4,-4 -6,-6l-3 -3c-6,-6 -20,-11 -20,-11l-10 -3c-4,-1 -8,-2 -10,-3l0 -23c7,-1 23,4 30,7 3,1 17,8 18,10 4,1 18,15 22,19 1,1 1,1 1,2 1,1 0,1 2,1 0,-9 0,-18 0,-27l0 -7c0,0 0,-1 0,-1 0,0 0,0 0,0 -1,-2 -15,-12 -17,-13l-10 -5c-4,-1 -7,-3 -10,-4 -2,-1 -4,-1 -5,-2l-17 -5c-8,-2 -17,-3 -27,-3 -13,0 -26,2 -39,5 -2,0 -4,1 -6,2 -2,1 -3,1 -5,2 -2,0 -15,6 -18,8l-15 10c-1,1 -3,2 -4,3l0 36c2,0 3,-2 4,-3 5,-5 0,-1 7,-7 4,-3 7,-7 11,-9 1,-1 0,0 2,-2 4,-3 16,-9 21,-11l19 -6c2,-1 9,-3 10,0 1,3 0,19 0,22 -3,1 -9,2 -12,3 -8,3 -13,5 -20,9 -5,3 -8,6 -13,9 -2,1 -2,2 -4,4l-1 1c-1,2 -3,3 -4,5l-3 5c0,0 -1,2 -2,2 -1,1 -2,3 -3,4 -4,6 -6,13 -9,20 -1,3 -2,9 -2,13 -1,6 -2,15 0,21 0,2 0,5 1,7 0,2 1,4 1,6 1,6 3,11 6,16 2,3 3,6 5,9l10 12c1,1 0,0 1,1l1 1c1,1 1,1 2,2l6 5c1,1 2,1 2,2 3,2 3,3 6,5 11,6 24,11 36,12 9,1 19,1 27,-2 1,0 2,0 3,-1 3,-1 11,-3 14,-5 3,-2 7,-3 10,-5 1,-1 1,-1 2,-1 6,-3 6,-5 10,-8 3,-2 6,-6 9,-9l6 -8c0,0 0,0 0,0 0,0 0,0 0,0 0,0 0,0 0,0 0,0 0,0 0,0l5 -8c1,-2 0,-1 1,-3 1,-2 2,-3 1,-6 -3,0 -26,-1 -28,0 -2,0 -9,13 -19,19 -5,3 -10,7 -16,8 -2,0 -2,1 -4,1 -3,1 -5,1 -8,1 -3,0 -7,0 -10,0 -7,0 -20,-4 -26,-8 -1,-1 -1,0 -2,-1 -1,0 -1,-1 -2,-1 -7,-5 -14,-12 -19,-20 -3,-5 -4,-9 -6,-14 -1,-3 -1,-5 -1,-8 -1,-3 -1,-11 0,-14 0,-2 1,-2 1,-4 0,-3 2,-7 2,-8 1,-3 1,-5 4,-10l6 -9c2,-3 5,-5 7,-8l8 -6z"/>
 </g>
</svg>
