<?xml version="1.0" encoding="UTF-8"?>
<!DOCTYPE svg PUBLIC "-//W3C//DTD SVG 1.1//EN" "http://www.w3.org/Graphics/SVG/1.1/DTD/svg11.dtd">
<!-- Creator: CorelDRAW X8 -->
<svg xmlns="http://www.w3.org/2000/svg" xml:space="preserve" width="1.44025in" height="1.85548in" version="1.1" style="shape-rendering:geometricPrecision; text-rendering:geometricPrecision; image-rendering:optimizeQuality; fill-rule:evenodd; clip-rule:evenodd"
viewBox="0 0 1440 1855"
 xmlns:xlink="http://www.w3.org/1999/xlink">
 <defs>
  <style type="text/css">
   <![CDATA[
    .fil0 {fill:#A5D7E8}
   ]]>
  </style>
 </defs>
 <g id="Layer_x0020_1">
  <metadata id="CorelCorpID_0Corel-Layer"/>
  <path class="fil0" d="M1 554c18,-1 31,-23 42,-35 14,-15 24,-25 39,-37 33,-29 66,-64 105,-87 14,-8 26,-22 68,-46 88,-50 119,-57 215,-89 139,-46 139,-43 140,31 0,25 0,51 0,76 -1,13 -1,27 -1,40 -1,14 -2,16 -15,20 -20,6 -42,10 -63,14 -64,12 -160,64 -209,96 -45,30 -86,68 -124,106 -49,49 -41,56 -68,85 -52,56 -106,190 -116,266 -6,49 -14,95 -14,147l15 149c13,49 20,77 39,121 39,88 71,126 127,195 8,9 13,16 19,23 9,10 13,10 20,20 14,18 111,95 133,107 147,82 293,114 462,94 26,-3 43,-10 66,-14 66,-10 119,-40 177,-65 70,-30 177,-120 221,-179 30,-39 124,-155 112,-209 -13,-4 -200,-4 -223,-1 -23,2 -43,39 -56,56 -18,22 -35,41 -54,59 -39,37 -87,67 -136,91 -23,12 -41,14 -65,22 -7,2 -13,5 -19,6 -42,11 -86,14 -131,14 -134,-1 -255,-61 -343,-151 -39,-39 -82,-93 -100,-143 -8,-25 -25,-66 -28,-92 -5,-38 -12,-69 -12,-108 0,-91 26,-188 77,-261 52,-76 60,-89 135,-141 15,-10 21,-13 31,-26 10,-13 53,-30 70,-39 25,-13 43,-33 81,-18 4,73 1,191 1,272 0,172 -2,377 1,547 33,13 59,16 100,16 63,0 51,-7 101,-15l0 -720c0,-73 -24,-125 59,-96 82,29 45,24 73,40 36,20 111,77 134,105 62,73 39,88 89,88l214 -1c4,-24 -9,-29 -14,-49 -6,-24 -8,-25 -19,-44 -44,-76 -56,-81 -111,-147 -20,-23 -46,-42 -65,-62 -75,-79 -194,-123 -299,-148 -15,-4 -47,-4 -51,-20l0 -18c0,-30 -5,-158 2,-166 28,-15 163,29 192,38 53,17 153,60 195,96 12,10 25,14 36,22 45,32 83,72 122,110 19,19 45,55 61,55l0 -227c0,-49 7,-62 -20,-87 -84,-73 -173,-116 -276,-159 -61,-25 -126,-40 -192,-58 -63,-18 -153,-23 -226,-23 -129,0 -237,18 -352,51 -23,7 -34,15 -57,22 -102,32 -219,110 -304,173 -12,10 -10,15 -10,31 1,92 -3,185 -1,277z"/>
 </g>
</svg>
